<svg xmlns="http://www.w3.org/2000/svg" version="1.1" xmlns:xlink="http://www.w3.org/1999/xlink" width="607" height="607"><svg version="1.2" xmlns="http://www.w3.org/2000/svg" viewBox="0 0 607 607" width="607" height="607"><style>.a{fill:#a853ff}.b{fill:#00b6dc}</style><path class="a" d="m28.8 197.3h104.5v276.7h82.1v-276.7h104.4v-67.6h-291z"></path><path class="b" d="m319.1 474h81.3v-41.9h2.5c10.5 23.9 33.7 45.6 72.7 45.6 57.1 0 103.2-44.7 103.2-132.6 0-91.1-48.8-132.7-102.7-132.7-40.9 0-63.2 23.9-73.2 47.6h-1.6v-130.3h-82.2zm80.5-129.1c0-42.1 17.5-68.2 47.5-68.2 30.5 0 47.3 26.7 47.3 68.2 0 41.7-16.8 68.8-47.3 68.8-30 0-47.5-26.9-47.5-68.8z"></path></svg><style>@media (prefers-color-scheme: light) { :root { filter: none; } }
@media (prefers-color-scheme: dark) { :root { filter: none; } }
</style></svg>